<?xml version="1.0" encoding="UTF-8"?>
<svg id="Layer_1" xmlns="http://www.w3.org/2000/svg" xmlns:xlink="http://www.w3.org/1999/xlink" version="1.1" viewBox="0 0 512 512">
  <!-- Generator: Adobe Illustrator 29.8.2, SVG Export Plug-In . SVG Version: 2.1.1 Build 3)  -->
  <defs>
    <style>
      .st0 {
        fill: url(#Degradado_sin_nombre);
      }
    </style>
    <linearGradient id="Degradado_sin_nombre" data-name="Degradado sin nombre" x1="256" y1="393.7" x2="256" y2="122.3" gradientTransform="translate(0 514) scale(1 -1)" gradientUnits="userSpaceOnUse">
      <stop offset="0" stop-color="#f704fe"/>
      <stop offset="1" stop-color="#24bce3"/>
    </linearGradient>
  </defs>
  <path class="st0" d="M148.1,303.1h-.3c-.8,0-20.2-1.3-42.6-16.5-2.1-1.4-2.6-4.2-1.2-6.3,1.4-2.1,4.2-2.6,6.3-1.2,20.2,13.7,37.8,14.9,38,14.9,2.5,0,4.3,2.3,4.2,4.7,0,2.6-2,4.4-4.4,4.4h0ZM386.8,297c-1.1,0-2.3-.5-3.2-1.3-1.8-1.8-1.8-4.6,0-6.4l15.7-15.7c1.8-1.8,4.6-1.8,6.4,0s1.8,4.6,0,6.4l-15.7,15.7c-.9.8-2,1.3-3.1,1.3ZM282.9,391.7c-7,0-13.6-2.7-18.5-7.7-4.5-4.5-7.1-10.2-7.6-16.5l-6.1,6.1c-10.2,10.2-26.9,10.2-37,0-4.9-4.9-7.7-11.4-7.7-18.5s2.7-13.6,7.7-18.5c1.8-1.8,4.6-1.8,6.4,0s1.8,4.6,0,6.4c-3.2,3.2-5,7.5-5,12.1s1.8,8.9,5,12.1c6.6,6.6,17.6,6.6,24.3,0l20.1-20.1c1.8-1.8,4.6-1.8,6.4,0s1.8,4.6,0,6.4-2.9,3.5-3.8,5.7c-.8,1.9-1.3,4.2-1.3,6.3,0,4.6,1.8,8.9,5,12.1s7.6,5.1,12.1,5.1,8.9-1.8,12.1-5.1l9-9c1.8-1.8,4.6-1.8,6.4,0s1.8,4.6,0,6.4l-9,9c-4.9,5.1-11.4,7.8-18.5,7.8h0ZM192.8,359.4c-7,0-13.6-2.7-18.5-7.7-10.2-10.2-10.2-26.9,0-37l40-40c1.8-1.8,4.6-1.8,6.4,0s1.8,4.6,0,6.4l-40,40c-6.6,6.6-6.6,17.6,0,24.3,3.2,3.2,7.6,5.1,12.1,5.1s8.9-1.8,12.1-5.1l40-40c1.8-1.8,4.6-1.8,6.4,0s1.8,4.6,0,6.4l-40,40c-4.9,5-11.4,7.7-18.5,7.7h0ZM169.6,321.4h-.2c-6.9,0-13.5-2.9-18.4-7.8-3.9-3.9-6.5-9-7.3-14.5-.2-1.4-.3-2.7-.3-4.1,0-7,2.7-13.6,7.7-18.5l78.3-78.3c6-6,14.3-9.5,22.7-9.5s5.9.5,8.7,1.3c5.6,1.6,10.8,4.7,14.9,9l24.4,26.5c3.6,3.6,8.7,5.7,13.8,5.7s10.2-2,13.8-5.7c6.1-6.1,7.5-15.6,3.5-23.1-7.3-13.7-19.7-32.4-38-43.8-14.5-9-30.3-12.2-47.1-9.1h-.2c-.4,0-37.5,5.5-66.8,24.3-4.9,3.1-11.1,3.3-16.2.5l-21.2-11.9c-2.1-1.2-3-4-1.7-6.1,1.2-2.1,4-3,6.1-1.7l21.2,11.9c2.2,1.2,5,1.1,7.1-.3,30.6-19.6,67.8-25.3,70.4-25.7,19-3.4,37,0,53.3,10.3,20,12.6,33.4,32.7,41.2,47.2,5.9,11,3.9,24.8-5.1,33.7-5.4,5.4-12.6,8.3-20.3,8.3s-14.9-3-20.3-8.3h0c0,0-24.5-26.6-24.5-26.6-3-3.1-6.6-5.4-10.7-6.6h0c-2-.6-4.1-.9-6.2-.9-6.1,0-12,2.5-16.2,6.8l-78.3,78.3c-3.2,3.2-5,7.5-5,12.1s0,1.8.2,2.7c.5,3.5,2.2,6.8,4.8,9.4,3.3,3.3,7.6,5.1,12.1,5.1h0c4.5,0,8.7-1.8,11.9-4.9,1.8-1.8,4.6-1.8,6.4,0s1.8,4.6,0,6.4c-5.1,5-11.5,7.7-18.5,7.7h0ZM369,165.7c-.3,0-.6,0-1,0-30.5-6.8-65.4-6.5-72.2-6.3h-.4c-2.5,0-4.5-2-4.5-4.5s2-4.5,4.5-4.5h.3c9.7-.2,43.6-.3,74.3,6.5,2.5.6,4,3,3.4,5.4-.5,2.2-2.4,3.6-4.4,3.6h0ZM374.4,317.9c-4.7,0-9.5-1.8-13.1-5.4-1.8-1.8-1.8-4.6,0-6.4s4.6-1.8,6.4,0c3.7,3.7,9.9,3.7,13.6,0,1.8-1.8,2.8-4.2,2.8-6.7s-1-5-2.8-6.7l-16.7-16.7c-1.8-1.8-4.2-2.8-6.7-2.8s-5,1-6.7,2.8-2.8,4.2-2.8,6.7,1,5,2.8,6.7,1.8,4.6,0,6.4-4.6,1.8-6.4,0c-3.5-3.5-5.4-8.2-5.4-13.1s1.9-9.7,5.4-13.1c3.5-3.5,8.2-5.4,13.1-5.4s9.7,1.9,13.1,5.4l16.7,16.7c3.5,3.5,5.4,8.2,5.4,13.1s-1.9,9.7-5.4,13.1c-3.6,3.7-8.4,5.4-13.2,5.4h0ZM360.5,343.9c-5,0-9.7-1.9-13.1-5.4-1.8-1.8-1.8-4.6,0-6.4s4.6-1.8,6.4,0,4.2,2.8,6.7,2.8,5-1,6.7-2.8,2.8-4.2,2.8-6.7-1-5-2.8-6.7l-22.7-22.7c-3.7-3.7-9.9-3.7-13.6,0s-3.7,9.9,0,13.6,1.8,4.6,0,6.4-4.6,1.8-6.4,0c-7.3-7.3-7.3-19.1,0-26.3,7.3-7.3,19.1-7.3,26.3,0l22.7,22.7c3.5,3.5,5.4,8.2,5.4,13.1s-1.9,9.7-5.4,13.1-8.1,5.4-13.1,5.4h0ZM347.1,370.4c-4.7,0-9.5-1.8-13.1-5.4l-29.3-29.3c-7.3-7.3-7.3-19.1,0-26.3,3.5-3.5,8.2-5.4,13.1-5.4s9.7,1.9,13.1,5.4l29.3,29.3c7.3,7.3,7.3,19.1,0,26.3-3.5,3.6-8.3,5.4-13.1,5.4ZM317.9,313c-2.6,0-5,1-6.7,2.8-3.7,3.7-3.7,9.9,0,13.6l29.3,29.3c3.7,3.7,9.9,3.7,13.6,0,3.7-3.7,3.7-9.9,0-13.6l-29.3-29.3c-1.9-1.8-4.3-2.8-6.8-2.8h0ZM318.7,381.9c-4.7,0-9.5-1.8-13.1-5.4l-20.8-20.8c-7.3-7.3-7.3-19.1,0-26.3,7.3-7.3,19.1-7.3,26.3,0,1.8,1.8,1.8,4.6,0,6.4s-4.6,1.8-6.4,0c-3.7-3.7-9.9-3.7-13.6,0-3.7,3.7-3.7,9.9,0,13.6l20.8,20.8c3.7,3.7,9.9,3.7,13.6,0s3.7-9.9,0-13.6-1.8-4.6,0-6.4,4.6-1.8,6.4,0c7.3,7.3,7.3,19.1,0,26.3-3.7,3.7-8.4,5.4-13.2,5.4ZM416.9,302.4c-6.7,0-13.1-4.5-15-11.3l-39.1-135.8c-1.2-4.1-.7-8.3,1.4-12.1,2-3.7,5.4-6.3,9.4-7.4q0,0,.2,0l65.4-15.1c3.1-.7,6.2,0,8.7,1.9s3.9,4.8,4,7.9l2.7,149.9c0,4.3-2.5,8.1-6.3,9.7l-26.5,11.6c-.2,0-.4,0-.6.2-1.4.5-2.8.6-4.2.6ZM375.8,144.6c-1.7.5-3,1.6-3.9,3-.9,1.6-1.1,3.4-.6,5.1l39.1,135.8c1,3.4,4.4,5.4,7.8,4.6l26.3-11.4c.5-.2.8-.7.8-1.3l-2.7-149.8c0-.6-.3-.9-.5-1.1-.3-.2-.6-.4-1.1-.3l-65.4,15.3ZM95.3,302.4c-1.4,0-2.8-.2-4.2-.6-.2,0-.4,0-.6-.2l-26.7-11.6s0,0,0,0c-3.8-1.8-6.1-5.4-6.1-9.5l2.7-150c0-3.1,1.5-6.1,4-7.9,2.5-1.9,5.6-2.6,8.7-1.9l65.4,15.3c0,0,0,0,.3,0,4.1,1.1,7.4,3.8,9.4,7.5s2.5,7.8,1.3,11.9l-39.1,135.7c-1.1,4-3.7,7.3-7.3,9.3-2.5,1.4-5.1,2-7.7,2ZM93.7,293.2c1.6.4,3.3,0,4.7-.7,1.5-.9,2.7-2.3,3.1-3.9l39.1-135.8c.5-1.7.3-3.5-.6-5.1-.8-1.5-2.2-2.7-3.9-3.1l-65.2-15.2c-.5,0-.8,0-1.1.3-.2,0-.5.5-.5,1.1l-2.7,149.9c0,.5.3.9.9,1.2l26,11.4Z"/>
</svg>