<?xml version="1.0" encoding="UTF-8"?>
<svg xmlns="http://www.w3.org/2000/svg" xmlns:xlink="http://www.w3.org/1999/xlink" version="1.1" viewBox="0 0 512 512">
  <!-- Generator: Adobe Illustrator 29.8.2, SVG Export Plug-In . SVG Version: 2.1.1 Build 3)  -->
  <defs>
    <style>
      .st0 {
        fill: url(#Degradado_sin_nombre);
      }
    </style>
    <linearGradient id="Degradado_sin_nombre" data-name="Degradado sin nombre" x1="1177.9" y1="162.5" x2="1177.9" y2="-1070.3" gradientTransform="translate(-97.3 119.9) scale(.3 -.3)" gradientUnits="userSpaceOnUse">
      <stop offset="0" stop-color="#66c"/>
      <stop offset=".5" stop-color="#f0f"/>
      <stop offset="1" stop-color="#f60"/>
    </linearGradient>
  </defs>
  <g id="Capa_1" image-rendering="optimizeQuality" shape-rendering="geometricPrecision" text-rendering="geometricPrecision">
    <g id="Layer_x5F_1">
      <path class="st0" d="M62.6,336.3L195.5,105.9c12.5-21.6,35.8-34.8,60.5-34.8s50.4,13.9,60.9,35.5l132.5,229.6c7.9,13.7,11,29.8,8.4,45.4-1.9,12.5-7,24-14.9,33.8-14.4,17.5-34.1,25.4-56.4,25.4H124.9c-22.1,0-41.5-8.2-55.7-25.4-18.2-22.3-21.4-54-6.7-79.2ZM256,325.5c19.7,0,35.3,15.8,35.3,35.3s-15.6,35.3-35.3,35.3-35.3-15.8-35.3-35.3,15.8-35.3,35.3-35.3ZM256,344.7c-8.9,0-16.1,7.2-16.1,16.1s7.2,16.1,16.1,16.1,16.1-7.2,16.1-16.1-7.2-16.1-16.1-16.1ZM256,130.1c19.4,0,35.3,15.8,35.3,35.3v113c0,19.4-15.8,35.3-35.3,35.3s-35.3-15.8-35.3-35.3v-113c0-19.4,15.8-35.3,35.3-35.3ZM256,149.3c-8.9,0-16.1,7.4-16.1,16.1v113c0,8.9,7.2,16.1,16.1,16.1s16.1-7.2,16.1-16.1v-113c0-8.6-7.2-16.1-16.1-16.1ZM84.2,403.2c11,13.4,25,18.5,41.8,18.5h260.3c16.8,0,30.7-5,41.8-18.5,5.8-6.7,9.6-15.6,11-24.5,1.7-11.3-.5-23-6.2-32.9l-132.5-229.6c-10.8-16.1-23.8-25.9-44.4-25.9s-34.8,9.6-43.9,25.2l-132.7,230.4c-10.8,18.5-8.4,41.3,4.8,57.3Z"/>
    </g>
  </g>
</svg>