<?xml version="1.0" encoding="UTF-8"?>
<svg id="Capa_1" xmlns="http://www.w3.org/2000/svg" xmlns:xlink="http://www.w3.org/1999/xlink" version="1.1" viewBox="0 0 512 512">
  <!-- Generator: Adobe Illustrator 29.8.2, SVG Export Plug-In . SVG Version: 2.1.1 Build 3)  -->
  <defs>
    <style>
      .st0 {
        fill: url(#Degradado_sin_nombre);
      }
    </style>
    <linearGradient id="Degradado_sin_nombre" data-name="Degradado sin nombre" x1="76.4" y1="95.1" x2="427.2" y2="445.9" gradientTransform="translate(0 514) scale(1 -1)" gradientUnits="userSpaceOnUse">
      <stop offset="0" stop-color="#545aff"/>
      <stop offset="1" stop-color="#03bdff"/>
    </linearGradient>
  </defs>
  <g id="_x33_3_Bulletin_board">
    <path class="st0" d="M426.1,79.1c-46.4,0-302.4,0-340.3,0-16,0-29,13-29,29v262.2c0,16,13,29,29,29v27.4c0,2.2,1.7,3.9,3.9,3.9h90.7c2.2,0,3.9-1.7,3.9-3.9v-27.4h109.1v29.6c0,2.2,1.7,3.9,3.9,3.9h74.6c2.2,0,3.9-1.7,3.9-3.9v-29.6c5.1,0-18.6,0,50.2,0,16,0,29.1-13,29.1-29V108.1c0-16-13-29-29.1-29h0ZM176.5,422.8h-82.9v-97h24c1.8,8,8.9,14,17.5,14s15.7-6,17.5-14h24v97ZM125,321.9c0-5.6,4.5-10.1,10.1-10.1s10.1,4.5,10.1,10.1-4.5,10.2-10.1,10.2-10.1-4.6-10.1-10.2ZM368.1,425.1h-66.8v-78.5h18.5c1.7,6.6,7.7,11.6,14.9,11.6s13.1-4.9,14.9-11.6h18.5v78.5ZM327.1,342.7c0-4.2,3.4-7.6,7.6-7.6s7.6,3.4,7.6,7.6-3.4,7.7-7.6,7.7c-4.2,0-7.6-3.4-7.6-7.7ZM372,338.8h-22.4c-1.7-6.6-7.7-11.6-14.9-11.6s-13.2,4.9-14.9,11.6h-22.4c-2.2,0-3.9,1.7-3.9,3.9v48.8h-109.1v-69.7c0-2.2-1.7-3.9-3.9-3.9h-27.9c-1.8-8-8.9-14-17.5-14s-15.7,6-17.5,14h-27.9c-2.2,0-3.9,1.7-3.9,3.9v69.7c-11.7,0-21.2-9.5-21.2-21.2V108.1c0-11.7,9.5-21.2,21.2-21.2h313.7s0,0,0,0c11.7,0,21.2,9.5,21.2,21.2v262.3c0,11.7-9.5,21.2-21.2,21.2s0,0,0,0h-23.6v-48.8c0-2.2-1.7-3.9-3.9-3.9h0ZM447.4,370.4c0,11.7-9.5,21.2-21.2,21.2h-6.8c5.5-5.2,9.2-12.8,9.2-21.2V108.1c0-2.1-.2-4.1-.7-6.1,0,0,0,0,0,0-1.3-5.8-4.4-11.2-8.6-15.1h6.8c11.7,0,21.2,9.5,21.2,21.2v262.3h0ZM180.4,119.5h-27.9c-1.8-8-8.9-14-17.5-14s-15.7,6-17.5,14h-27.9c-2.2,0-3.9,1.7-3.9,3.9v104.8c0,2.2,1.7,3.9,3.9,3.9h90.7c2.2,0,3.9-1.7,3.9-3.9v-104.8c0-2.2-1.7-3.9-3.9-3.9ZM135.1,113.2c5.6,0,10.1,4.5,10.1,10.1s-4.5,10.2-10.1,10.2-10.1-4.6-10.1-10.2,4.5-10.1,10.1-10.1ZM176.5,224.3h-82.9v-97h24c1.8,8,8.9,14,17.5,14s15.7-6,17.5-14h24v97ZM278.4,207.8h-24.2c-1.8-7.1-8.1-12.4-15.7-12.4s-14,5.3-15.7,12.4h-24.2c-2.2,0-3.9,1.7-3.9,3.9v92.4c0,2.2,1.7,3.9,3.9,3.9h80c2.2,0,3.9-1.7,3.9-3.9v-92.4c0-2.2-1.7-3.9-3.9-3.9h0ZM238.4,203.2c4.7,0,8.5,3.8,8.5,8.5s-3.8,8.5-8.5,8.5-8.5-3.8-8.5-8.5,3.8-8.5,8.5-8.5ZM274.5,300.2h-72.2v-84.6h20.3c1.8,7.1,8.1,12.4,15.7,12.4s14-5.3,15.7-12.4h20.3v84.6ZM398,228.2v-104.8c0-2.2-1.7-3.9-3.9-3.9h-27.9c-1.8-8-8.9-14-17.5-14s-15.7,6-17.5,14h-27.9c-2.2,0-3.9,1.7-3.9,3.9v104.8c0,2.2,1.7,3.9,3.9,3.9h90.7c2.2,0,3.9-1.7,3.9-3.9ZM348.7,113.2c5.6,0,10.1,4.5,10.1,10.1s-4.5,10.2-10.1,10.2-10.1-4.6-10.1-10.2,4.5-10.1,10.1-10.1ZM390.2,224.3h-82.9v-97h24c1.8,8,8.9,14,17.5,14s15.7-6,17.5-14h24v97h0ZM164.6,158.5c0,2.2-1.7,3.9-3.9,3.9h-51.1c-2.2,0-3.9-1.7-3.9-3.9s1.7-3.9,3.9-3.9h51.1c2.2,0,3.9,1.7,3.9,3.9ZM164.6,182.2c0,2.2-1.7,3.9-3.9,3.9h-51.1c-2.2,0-3.9-1.7-3.9-3.9s1.7-3.9,3.9-3.9h51.1c2.2,0,3.9,1.7,3.9,3.9ZM164.6,205.9c0,2.2-1.7,3.9-3.9,3.9h-51.1c-2.2,0-3.9-1.7-3.9-3.9s1.7-3.9,3.9-3.9h51.1c2.2,0,3.9,1.7,3.9,3.9ZM264.8,242.7c0,2.2-1.7,3.9-3.9,3.9h-45.1c-2.2,0-3.9-1.7-3.9-3.9s1.7-3.9,3.9-3.9h45.1c2.2,0,3.9,1.7,3.9,3.9ZM264.8,263.6c0,2.2-1.7,3.9-3.9,3.9h-45.1c-2.2,0-3.9-1.7-3.9-3.9s1.7-3.9,3.9-3.9h45.1c2.2,0,3.9,1.7,3.9,3.9ZM264.8,284.4c0,2.2-1.7,3.9-3.9,3.9h-45.1c-2.2,0-3.9-1.7-3.9-3.9s1.7-3.9,3.9-3.9h45.1c2.2,0,3.9,1.7,3.9,3.9ZM164.6,357.1c0,2.2-1.7,3.9-3.9,3.9h-51.1c-2.2,0-3.9-1.7-3.9-3.9s1.7-3.9,3.9-3.9h51.1c2.2,0,3.9,1.7,3.9,3.9ZM164.6,380.7c0,2.2-1.7,3.9-3.9,3.9h-51.1c-2.2,0-3.9-1.7-3.9-3.9s1.7-3.9,3.9-3.9h51.1c2.2,0,3.9,1.7,3.9,3.9ZM164.6,404.4c0,2.2-1.7,3.9-3.9,3.9h-51.1c-2.2,0-3.9-1.7-3.9-3.9s1.7-3.9,3.9-3.9h51.1c2.2,0,3.9,1.7,3.9,3.9ZM359.7,371.7c0,2.2-1.7,3.9-3.9,3.9h-42.1c-2.2,0-3.9-1.7-3.9-3.9s1.7-3.9,3.9-3.9h42.1c2.2,0,3.9,1.7,3.9,3.9ZM359.7,391.1c0,2.2-1.7,3.9-3.9,3.9h-42.1c-2.2,0-3.9-1.7-3.9-3.9s1.7-3.9,3.9-3.9h42.1c2.2,0,3.9,1.7,3.9,3.9ZM359.7,410.6c0,2.2-1.7,3.9-3.9,3.9h-42.1c-2.2,0-3.9-1.7-3.9-3.9s1.7-3.9,3.9-3.9h42.1c2.2,0,3.9,1.7,3.9,3.9ZM378.2,158.5c0,2.2-1.7,3.9-3.9,3.9h-51.1c-2.2,0-3.9-1.7-3.9-3.9s1.7-3.9,3.9-3.9h51.1c2.2,0,3.9,1.7,3.9,3.9ZM378.2,182.2c0,2.2-1.7,3.9-3.9,3.9h-51.1c-2.2,0-3.9-1.7-3.9-3.9s1.7-3.9,3.9-3.9h51.1c2.2,0,3.9,1.7,3.9,3.9ZM378.2,205.9c0,2.2-1.7,3.9-3.9,3.9h-51.1c-2.2,0-3.9-1.7-3.9-3.9s1.7-3.9,3.9-3.9h51.1c2.2,0,3.9,1.7,3.9,3.9Z"/>
  </g>
</svg>