<?xml version="1.0" encoding="UTF-8"?>
<svg id="Capa_1" xmlns="http://www.w3.org/2000/svg" xmlns:xlink="http://www.w3.org/1999/xlink" version="1.1" viewBox="0 0 480 480">
  <!-- Generator: Adobe Illustrator 29.8.2, SVG Export Plug-In . SVG Version: 2.1.1 Build 3)  -->
  <defs>
    <style>
      .st0 {
        fill: url(#Degradado_sin_nombre);
      }
    </style>
    <linearGradient id="Degradado_sin_nombre" data-name="Degradado sin nombre" x1="-162.5" y1="-12" x2="-162.5" y2="-54.1" gradientTransform="translate(1540 500.1) scale(8)" gradientUnits="userSpaceOnUse">
      <stop offset="0" stop-color="#006df0"/>
      <stop offset="1" stop-color="#00e7f0"/>
    </linearGradient>
  </defs>
  <path class="st0" d="M425.6,118.4h-25.6v-32c0-3.5-2.8-6.4-6.4-6.4-.2,0-.4,0-.6,0l-16.7,1.4c-40.5,3.3-80.2,13-117.7,28.7l-18.7,7.8-18.6-7.7c-37.5-15.7-77.2-25.4-117.7-28.7l-16.7-1.4c-3.5-.3-6.6,2.3-6.9,5.8,0,.2,0,.4,0,.6v32h-25.6c-3.5,0-6.4,2.9-6.4,6.4v268.8c0,3.5,2.9,6.4,6.4,6.4h371.2c3.5,0,6.4-2.9,6.4-6.4V124.8c0-3.5-2.9-6.4-6.4-6.4ZM263.6,121.9c36.3-15.2,74.7-24.5,113.8-27.8l9.8-.8v255.9l-10.5.9c-40.5,3.4-80.2,13-117.8,28.6l-12.5,5.2v-254.9l17.2-7.1ZM92.8,93.4l9.8.8c39.2,3.2,77.6,12.6,113.9,27.8l17.2,7.1v254.9l-11.8-4.9c-37.5-15.7-77.2-25.4-117.6-28.8l-11.4-.9V93.4ZM60.8,131.2h19.2v224c0,3.3,2.5,6.1,5.9,6.4l17.2,1.5c4.7.4,9.4.9,14.1,1.5,1.6.2,3.1.4,4.7.6,3.1.4,6.2.8,9.3,1.3,1.8.3,3.7.6,5.5,1,2.8.5,5.6,1,8.4,1.5,1.9.4,3.8.8,5.8,1.2,2.7.6,5.4,1.2,8.1,1.8,1.9.5,3.9,1,5.8,1.4,2.6.7,5.3,1.4,7.9,2.1,1.9.5,3.8,1.1,5.8,1.7,2.6.8,5.2,1.6,7.8,2.4,1.9.6,3.8,1.2,5.7,1.9,2.6.9,5.2,1.8,7.8,2.7,1.8.6,3.7,1.3,5.5,2,.8.3,1.6.6,2.4.9H60.8V131.2ZM419.2,387.2h-146.7c.9-.3,1.7-.7,2.6-1,1.9-.7,3.8-1.4,5.8-2.1,2.5-.9,5-1.8,7.6-2.6,2-.6,4-1.3,5.9-1.9,2.5-.8,5.1-1.6,7.6-2.3,2-.6,4-1.2,6-1.7,2.6-.7,5.1-1.4,7.7-2,2-.5,4-1,6-1.5,2.7-.6,5.3-1.2,8-1.8,1.9-.4,3.8-.8,5.8-1.2,2.8-.6,5.6-1,8.5-1.5,1.8-.3,3.7-.6,5.5-1,3.2-.5,6.3-.9,9.5-1.4,1.5-.2,3-.4,4.6-.6,4.7-.6,9.4-1.1,14.2-1.5l16.4-1.3c3.3-.3,5.9-3.1,5.9-6.4v-224h19.2v256Z"/>
</svg>