<?xml version="1.0" encoding="UTF-8"?>
<svg id="b09bccbb-a3e1-4cc7-a494-0a0540ac185c" xmlns="http://www.w3.org/2000/svg" xmlns:xlink="http://www.w3.org/1999/xlink" version="1.1" viewBox="0 0 64 64">
  <!-- Generator: Adobe Illustrator 29.8.2, SVG Export Plug-In . SVG Version: 2.1.1 Build 3)  -->
  <defs>
    <style>
      .st0 {
        fill: url(#Degradado_sin_nombre);
      }
    </style>
    <linearGradient id="Degradado_sin_nombre" data-name="Degradado sin nombre" x1="13.7" y1="34" x2="50.3" y2="34" gradientTransform="translate(0 66) scale(1 -1)" gradientUnits="userSpaceOnUse">
      <stop offset="0" stop-color="#00c0ff"/>
      <stop offset="1" stop-color="#5558ff"/>
    </linearGradient>
  </defs>
  <path class="st0" d="M49.5,22.5c.4,0,.8-.4.8-.8h0v-6c0-.4-.4-.8-.8-.8h-8.5c-.3-.8-.9-1.6-1.7-2l-6.3-3.3c-.4-.2-.9,0-1.1.3l-2.8,4.9h-7.8c-1.5,0-2.7,1.2-2.7,2.7v15.6l-4.9,8.5c-.2.4,0,.9.3,1.1,0,0,0,0,0,0l4.6,2.4v6.4c0,1.5,1.2,2.7,2.7,2.7h28.2c.4,0,.8-.4.8-.8h0v-28.7c0-.4-.4-.8-.8-.8-.4,0-.8.4-.8.8v27.9c0,0-17,.2-16.7,0,.2-.9,9-35.2,9.1-36.2h7.6s0,5.2,0,5.2c0,.4.4.8.8.8h0ZM21.4,16.5h6.9l-8,14v-12.8c0-.6.5-1.1,1.1-1.1h0ZM39.6,16.5l-8.5,33.6c.2,0-4.1-2.2-4.1-2.2-.4-.2-.9,0-1.1.3-.2.4,0,.9.3,1.1l3.7,2c.4.2.5.7.3,1.1-.1.3-.4.4-.7.4-1.3,0-6.8,0-8.2,0-.6,0-1.1-.5-1.1-1.1v-5.5l2.8,1.5c.4.2.9,0,1.1-.3.2-.4,0-.9-.3-1.1l-8.2-4.3c3.1-5.3,14.2-24.7,17.5-30.4l5.6,2.9c.8.4,1.2,1.3.9,2.1h0ZM45.7,20.1h-2.4c-.4,0-.8-.4-.8-.8,0-.4.4-.8.8-.8h2.4c.4,0,.8.4.8.8,0,.4-.4.8-.8.8ZM45.7,23.6h-3.7c-.4,0-.8-.4-.8-.8,0-.4.4-.8.8-.8h3.7c.4,0,.8.4.8.8,0,.4-.4.8-.8.8h0ZM45.7,27.2h-4.9c-.4,0-.8-.4-.8-.8,0-.4.4-.8.8-.8h4.9c.4,0,.8.4.8.8,0,.4-.4.8-.8.8h0ZM45.7,30.8h-5.7c-.4,0-.8-.4-.8-.8,0-.4.4-.8.8-.8h5.7c.4,0,.8.4.8.8,0,.4-.4.8-.8.8h0ZM45.7,34.4h-6.6c-.4,0-.8-.4-.8-.8,0-.4.4-.8.8-.8h6.6c.4,0,.8.4.8.8,0,.4-.4.8-.8.8h0ZM44.9,49.3v-2.6l-4.6-3.8c-.5-.4-1.1-.4-1.6,0l-2.3,2c-.3.3-.8.2-1.1-.1-.3-.3-.2-.8,0-1.1l2.3-2c1-.9,2.6-.9,3.7,0l3.6,2.9v-5.9h-6.8c-.4,0-.8-.4-.8-.8,0-.4.4-.8.8-.8h7.6c.4,0,.8.4.8.8h0v12.1c0,.4-.4.8-.8.8h-10.9c-.4,0-.8-.4-.8-.8,0-.4.4-.8.8-.8h10.1ZM36.5,19.8c0,.1-3.8-1.9-4-1.9-.4-.2-.5-.7-.3-1.1.2-.4.7-.5,1.1-.3l3.6,1.8c.4.2.5.7.3,1.1-.1.3-.4.4-.7.4ZM34.9,23.7c-.1,0-.2,0-.4,0l-4.1-2.1c-.4-.2-.5-.7-.3-1.1.2-.4.7-.5,1.1-.3l4.1,2.1c.4.2.5.7.3,1.1-.1.3-.4.4-.7.4ZM33.9,28.2c-.1,0-.2,0-.4,0l-5.4-2.7c-.4-.2-.5-.7-.3-1.1.2-.4.7-.5,1.1-.3l5.4,2.7c.4.2.5.7.3,1.1-.1.3-.4.4-.7.4ZM32.5,33l-5.9-3.1c-.4-.2-.5-.7-.3-1.1.2-.4.7-.5,1.1-.3l6,3.1c.4.2.5.7.3,1.1-.2.4-.7.5-1.1.3ZM31.2,38.4l-7.1-4.2c-.4-.2-.5-.7-.3-1.1.2-.4.7-.5,1.1-.3l7.1,4.2c.4.2.5.7.3,1.1-.2.4-.7.5-1.1.3Z"/>
</svg>