<?xml version="1.0" encoding="UTF-8"?>
<svg id="Layer_1" xmlns="http://www.w3.org/2000/svg" xmlns:xlink="http://www.w3.org/1999/xlink" version="1.1" viewBox="0 0 512 512">
  <!-- Generator: Adobe Illustrator 29.8.2, SVG Export Plug-In . SVG Version: 2.1.1 Build 3)  -->
  <defs>
    <style>
      .st0 {
        fill: url(#Degradado_sin_nombre);
      }
    </style>
    <linearGradient id="Degradado_sin_nombre" data-name="Degradado sin nombre" x1="240.2" y1="443.9" x2="240.2" y2="96.6" gradientTransform="translate(5.8 537.5) scale(1 -1)" gradientUnits="userSpaceOnUse">
      <stop offset="0" stop-color="#f704fe"/>
      <stop offset="1" stop-color="#24bce3"/>
    </linearGradient>
  </defs>
  <path id="Layer_x5F_1" class="st0" d="M256,83.2c-14.1,0-28.1,3.8-39.6,11.3-22,14.4-31.1,39.4-25.8,70.3,3.3,19.3,29.3,64.1,48.3,96.8,6.7,11.6,12.7,21.9,17.1,30,4.3-8.1,10.3-18.4,17.1-30,18.9-32.7,44.8-77.4,48.3-96.8,5.4-30.9-3.8-55.9-25.8-70.3-11.5-7.5-25.6-11.3-39.6-11.3h0ZM256,304.1c-1.5,0-2.8-.8-3.5-2.2-4.2-8.4-11.7-21.3-20.3-36.3-20.3-35.1-45.6-78.7-49.2-99.4-3.1-17.8-1.8-33.9,3.9-47.8,5.1-12.4,13.8-23,25.3-30.5,25.8-17,62-17,87.8,0,11.4,7.5,20.2,18,25.3,30.5,5.7,13.9,7,30,3.9,47.8-3.6,20.8-28.9,64.3-49.2,99.4-8.7,15-16.2,27.9-20.3,36.3-.8,1.3-2.2,2.2-3.7,2.2h0ZM256,119.6c-16.8,0-30.6,13.8-30.6,30.6s13.8,30.6,30.6,30.6,30.6-13.8,30.6-30.6-13.8-30.6-30.6-30.6ZM256,188.7c-21.3,0-38.5-17.3-38.5-38.5s17.3-38.5,38.5-38.5,38.5,17.3,38.5,38.5-17.3,38.5-38.5,38.5ZM432.8,436.8H79.2c-2.2,0-3.9-1.8-3.9-3.9v-231.8c0-2.2,1.8-3.9,3.9-3.9h121.6c2.2,0,3.9,1.8,3.9,3.9s-1.8,3.9-3.9,3.9h-117.7v223.9h345.8v-223.9h-117.7c-2.2,0-3.9-1.8-3.9-3.9s1.8-3.9,3.9-3.9h121.6c2.2,0,3.9,1.8,3.9,3.9v231.8c0,2.2-1.7,3.9-3.9,3.9h0ZM236.3,375c-1.4,0-2.7-.8-3.4-2l-45.2-78.2c-.6-1.1-.7-2.3-.3-3.5.5-1.2,1.4-2,2.7-2.3l53-14.2c2.1-.6,4.3.7,4.8,2.8.6,2.1-.7,4.3-2.8,4.8l-48,12.8,41.1,71.1,110.6-29.7-41.1-71.1-34.6,9.3c-2.1.6-4.3-.7-4.8-2.8s.7-4.3,2.8-4.8l37.5-10.1c1.8-.5,3.6.3,4.4,1.8l45.2,78.2c.6,1.1.7,2.3.3,3.5-.5,1.2-1.4,2-2.6,2.3l-118.5,31.8c-.3.2-.7.2-1,.2h0ZM325,227.9c-1.4,0-2.7-.8-3.4-2l-13.3-22.9c-1.1-1.9-.4-4.3,1.4-5.4,1.9-1.1,4.3-.4,5.4,1.4l11.7,20.3,82.4-22.1c2.1-.6,4.3.7,4.8,2.8.6,2.1-.7,4.3-2.8,4.8l-85.4,22.9c-.2,0-.5.2-.9.2ZM174.6,268.1c-1.4,0-2.7-.8-3.4-2l-36.5-63.2c-1.1-1.9-.4-4.3,1.4-5.4,1.9-1.1,4.3-.4,5.4,1.4l35,60.6,50.1-13.4c2.1-.6,4.3.7,4.8,2.8.6,2.1-.7,4.3-2.8,4.8l-53,14.2c-.3.2-.7.2-1,.2h0ZM79.2,293.7c-1.8,0-3.3-1.2-3.8-2.9-.6-2.1.7-4.3,2.8-4.8l58.6-15.7-38.9-67.3c-1.1-1.9-.4-4.3,1.4-5.4,1.9-1.1,4.3-.4,5.4,1.4l41.4,71.8c.6,1.1.7,2.3.3,3.5-.5,1.2-1.4,2-2.6,2.3l-63.5,17c-.4.2-.8.2-1.1.2h0ZM79.2,417c-1.8,0-3.3-1.2-3.8-2.9-.6-2.1.7-4.3,2.8-4.8l120.3-32.3-41.1-71.1-77.2,20.7c-2.1.6-4.3-.7-4.8-2.8s.7-4.3,2.8-4.8l80.1-21.4c1.8-.5,3.6.3,4.4,1.8l45.2,78.2c.6,1.1.7,2.3.3,3.5-.5,1.2-1.4,2-2.6,2.3l-125.3,33.5c-.3,0-.7,0-1,0h0ZM129,436.8c-1.8,0-3.3-1.2-3.8-2.9-.6-2.1.7-4.3,2.8-4.8l91.9-24.7c1.8-.5,3.6.3,4.4,1.8l14.3,24.7c1.1,1.9.4,4.3-1.4,5.4-1.9,1.1-4.3.4-5.4-1.4l-12.8-22-88.9,23.8c-.3,0-.8,0-1.1,0h0ZM408.9,436.8c-1.3,0-2.7-.7-3.4-2l-36-62.3-110.6,29.7,16.6,28.8c1.1,1.9.4,4.3-1.4,5.4-1.9,1.1-4.3.4-5.4-1.4l-19.2-33.2c-.6-1.1-.7-2.3-.3-3.5.5-1.2,1.4-2,2.6-2.3l118.5-31.8c1.8-.5,3.6.3,4.4,1.8l37.5,64.9c1.1,1.9.4,4.3-1.4,5.4-.6.3-1.3.5-1.9.5h0ZM432.9,414.5c-1.3,0-2.7-.7-3.4-2l-29.5-51.2c-.6-1.1-.7-2.3-.3-3.5.5-1.2,1.4-2,2.6-2.3l29.5-7.9c2.1-.6,4.3.7,4.8,2.8s-.7,4.3-2.8,4.8l-24.6,6.6,27,46.7c1.1,1.9.4,4.3-1.4,5.4-.6.5-1.3.7-1.9.7h0ZM386.8,334.6c-1.4,0-2.7-.8-3.4-2l-45.2-78.1c-.6-1.1-.7-2.3-.3-3.5.5-1.2,1.4-2,2.6-2.3l91.3-24.4c2.1-.6,4.3.7,4.8,2.8s-.7,4.3-2.8,4.8l-86.3,23.1,41.1,71.1,43.2-11.6c2.1-.6,4.3.7,4.8,2.8.6,2.1-.7,4.3-2.8,4.8l-46,12.4c-.3,0-.7,0-1,0h0Z"/>
</svg>